<svg xmlns="http://www.w3.org/2000/svg" xmlns:xlink="http://www.w3.org/1999/xlink" viewBox="0 0 1024 500"><defs><style>.cls-1{isolation:isolate;}.cls-2{fill:url(#linear-gradient);}.cls-3{fill:#d4ff8f;}.cls-27,.cls-4{fill:none;stroke:#4d4d4d;stroke-miterlimit:10;stroke-width:2px;}.cls-5{fill:#ed785d;}.cls-6{fill:#b9d2db;}.cls-7{fill:#94bac8;}.cls-8{fill:#73c4d1;}.cls-9{fill:#006b98;opacity:0.32;mix-blend-mode:multiply;}.cls-10{fill:#292c3d;}.cls-11{fill:#fff;}.cls-12{fill:#f88667;}.cls-13{fill:#e45940;}.cls-14{fill:#d9e021;}.cls-15{fill:#d3d320;}.cls-16{fill:#f8f8f8;}.cls-17{fill:#cedce5;}.cls-18{fill:#333;}.cls-19{fill:#d8e3ea;}.cls-20{fill:#ed7a5f;}.cls-21{fill:#514553;}.cls-22{fill:#3d3848;}.cls-23{fill:#181c2e;}.cls-24{fill:#303f46;}.cls-25,.cls-26{fill:#ff0;}.cls-25{opacity:0.17;}.cls-26{opacity:0.56;}.cls-27{stroke-dasharray:4.92 4.92;}</style><linearGradient id="linear-gradient" x1="-12" y1="252.5" x2="1042" y2="252.5" gradientUnits="userSpaceOnUse"><stop offset="0" stop-color="#fff"/><stop offset="1" stop-color="#f4f4f4"/></linearGradient></defs><title>bg</title><g class="cls-1"><g id="Layer_1" data-name="Layer 1"><rect class="cls-2" x="-12" y="-8" width="1054" height="521"/><circle class="cls-3" cx="721" cy="240" r="211"/><line class="cls-4" x1="453" y1="426" x2="987.5" y2="425.5"/><path class="cls-5" d="M899.7,214.5H889.4s-1.5,15.2-4.2,17c0,0-3.3,17.9,9.3,17.9,15.3,0,9.3-17.9,9.3-17.9C901.2,229.7,899.7,214.5,899.7,214.5Z"/><path class="cls-6" d="M903.9,231.5c-.5,15.2-9.3,13.7-9.3,13.7s-8.8,1.6-9.3-13.7c0,0-14,4.2-20.9,9.1a157.4,157.4,0,0,1,3.1,28.1l8,33.6,19.1,1,19.1-1,8-33.6a157.4,157.4,0,0,1,3.1-28.1C917.9,235.6,903.9,231.5,903.9,231.5Z"/><path class="cls-7" d="M920.3,249.4c-8.7,5-13,16.6-21.4,22.2s-15-6-19.2-12.1a33.7,33.7,0,0,0-14-12.1,154.5,154.5,0,0,1,1.9,21.2l8,33.6,19.1,1,19.1-1,8-33.6a153.9,153.9,0,0,1,1.8-20.9Z"/><path class="cls-8" d="M929.9,315.8c0-11.8-13.5-19.5-13.5-19.5H871s-13.5,7.7-13.5,19.5a63.2,63.2,0,0,0,1.1,9.1h15.1l-1.6,3.3-.4.8h11c.8,0,2.4.4,2.2-.9s-1.4-2.9-.4-4.9a6.2,6.2,0,0,1,4.7-2.8h8.2a11.9,11.9,0,0,1,2.6.5c.8.1,1.8.1,2.2,1a13.7,13.7,0,0,1,.8,3.7,22.9,22.9,0,0,1-.3,3.5h15.4a43.4,43.4,0,0,1-2.6-4.1h13.4A63.2,63.2,0,0,0,929.9,315.8Z"/><path class="cls-9" d="M929.9,315.8c0-11.8-13.5-19.5-13.5-19.5H871s-13.5,7.7-13.5,19.5a63.2,63.2,0,0,0,1.1,9.1h15.1l-1.6,3.3-.4.8h13.1c.3,0-.5-2-.6-2.2a3.9,3.9,0,0,1-.2-2.4,5,5,0,0,1,1.5-2.2c2.2-2,5.1-2,7.8-2s5.5-.3,7.8,1.3a4.8,4.8,0,0,1,1.2,1.1c1.6,2.1.8,4,.5,6.4h15.4a43.4,43.4,0,0,1-2.6-4.1h13.4A63.2,63.2,0,0,0,929.9,315.8Z"/><path class="cls-6" d="M864.4,240.6s-17.3,40.5-16.1,45.9c.3,1.3,21.4,15.1,31.3,13.1l4-.8S868.9,240.3,864.4,240.6Z"/><path class="cls-6" d="M924.7,240.6s17.3,40.5,16.1,45.9c-.3,1.3-21.4,15.1-31.3,13.1l-4-.8S920.2,240.3,924.7,240.6Z"/><path class="cls-7" d="M871.1,254.8a30.7,30.7,0,0,1-.7,5.9c-1.5,7.3-4,15-1.4,22.4,1.9,5.6,5,11.3,7.8,16.7a11.7,11.7,0,0,0,2.8-.2l4-.8S876.9,272,871.1,254.8Z"/><path class="cls-7" d="M915.2,299.4a28.2,28.2,0,0,0,1.9-10.8c-.2-7.5-.3-15-.2-22.4,0-3.2.1-6.4.3-9.4-5.6,17.2-11.9,42.1-11.9,42.1l4,.8A15.3,15.3,0,0,0,915.2,299.4Z"/><path class="cls-10" d="M877.3,396.9s-11,16.1-12.3,19.5,1.9,7.7,6.1,6,6.8-5.3,6.9-7.6,2.4-3.5,3.4-3.7,6.7-8.2,6.1-10.3-3.4-4.6-3.4-4.6Z"/><path class="cls-10" d="M910.2,396.9s11,16.1,12.3,19.5-1.9,7.7-6.1,6-6.8-5.3-6.9-7.6-2.4-3.5-3.4-3.7-6.7-8.2-6.1-10.3,3.4-4.6,3.4-4.6Z"/><rect class="cls-6" x="850.9" y="329.9" width="3.6" height="92.86"/><rect class="cls-6" x="933.8" y="329.9" width="3.6" height="92.86"/><rect class="cls-10" x="843.8" y="322.4" width="98.2" height="11.9"/><path class="cls-8" d="M881.1,316.6c-1.3-3.8-1.6-11.9-10.4-11.9-17,0-13,16.7-12.8,19.2,2.6,24.9,14.9,74.5,14.9,74.5h17l-7.1-70.2C882.6,326.9,882,319.2,881.1,316.6Z"/><path class="cls-8" d="M906.3,316.6c1.3-3.8,1.6-11.9,10.4-11.9,17,0,13,16.7,12.8,19.2-2.6,24.9-14.9,74.5-14.9,74.5h-17l7.1-70.2C904.9,326.9,905.4,319.2,906.3,316.6Z"/><rect class="cls-10" x="869.6" y="299.3" width="50" height="3.2"/><path class="cls-10" d="M926.9,261.8H862.2s-3.5,0-2.9,4.2,8.8,33.6,10.4,33.6h49.7c1.4,0,9.8-29.4,10.4-33.6S926.9,261.8,926.9,261.8Z"/><ellipse class="cls-11" cx="894.6" cy="282.2" rx="2.7" ry="2.9"/><path class="cls-12" d="M903.8,194.1s-4.9-5-11.3-4.1-10.1,2.2-11.6,7.9-3.8,20-3.8,20,1.4,12.7,11.8,8.2,21.3-13,19.4-18S903.8,194.1,903.8,194.1Z"/><path class="cls-10" d="M898.5,220.5s13.2-3,11.4-14.7c-1.4-8.8,5.5-9.9.6-15.8-3.5-4.2-8.4,2.1-8.4,2.1s-5.6,2.4-5.3,5.3,2,8,.3,14.1c0,0,1.7,1.3,2.8,0s0-6.4,3.2-5.9,3,6.7-.5,7.6c0,0-.7,7.3-4.2,7.4"/><path class="cls-10" d="M908.2,189s-2-6.5-11.3-7-9.9,5.3-13.3,5.9-5.7,4.8-4.4,3.8-4.1,2.7-1.1,8.7c1.1,2.2-1,2.2,6.4,2.5S902.4,200.1,908.2,189Z"/><path class="cls-13" d="M623.3,180.3c-4.6-.6-7.9-2.6-11.1-5.7.9,8.8-1.8,17.8-1.8,17.8s.4,28.7,12.1,25.3,4.2-22.2,4.2-22.2C623.9,191.3,623.4,184.8,623.3,180.3Z"/><path class="cls-11" d="M628.5,183.3h1.4l.4-1,.8-1.8c.4-1.1.7-2.3,1-3.4l-1.9-.3-5.1,2.5-1,.5A53.7,53.7,0,0,1,628.5,183.3Z"/><path class="cls-12" d="M684.4,216.3a54.2,54.2,0,0,0,5.2-4.4c.7-1,3.8-8,5.5-11.3s10.8-6.9,11.6-4.5-3.1,2.8-7.1,5.6c0,0,.4.6.8.6s6.7,8.4,2.1,11.5-10.6,3.2-14.6,6.7C687.9,220.5,684.7,218.6,684.4,216.3Z"/><path class="cls-10" d="M617.3,412.2s-1.6,9.6-.6,12.3,29.7,2.3,31.4.6-1.1-4.9-2.5-5.6l-16.2-7.2Z"/><path class="cls-10" d="M598.9,414H586.5s-6.5,8.9-6.4,11.1,10.7.9,12.9.9,9.6.2,9.5-.8S598.9,414,598.9,414Z"/><path class="cls-10" d="M635.5,261.3l-35.1-.7s-5.3,8.8-6.5,34c-.8,17.3-1.5,22.1-3.2,45-1.2,15.5-6.7,75.1-6.7,75.1h18.7s7.9-67.9,8.3-71.6c.1-1.3,4.8-37.7,4.8-37.7s-.8,33-.8,36.8-.8,70.6-.8,70.6h19.7S636,356,636.2,343C636.5,321.9,638.3,268.1,635.5,261.3Z"/><path class="cls-14" d="M642.9,196.6,636,222.9s12.7,23.7,19.1,24,37-26.6,37-26.6l-5.1-8.8s-26.4,19.8-27.9,19.3S647.5,197.5,642.9,196.6Z"/><path class="cls-14" d="M610.5,191.7s-16.3,2.2-20.3,4.4c0,0,11.1,17.8,7.6,29.2,0,0-3.1,39.2-2.8,47.8a74,74,0,0,0,43.8.3s-.4-43.2-.4-49.9c0,0,2-18,4.4-26.8,0,0-8.6-1.8-17.5-3.5,0,0,.7.9-3,5.7C620.2,201.7,611.2,197.5,610.5,191.7Z"/><path class="cls-15" d="M638.5,223.4s.5-4.4,1.3-9.9c-2.9,3-3.3,16.4-3.7,18.6-1.8,10.1-15.1,13.8-23.7,8.3s-9-17.8-10.9-26.1c-1-4.4-3.9-7.8-7.4-10.9,2.8,6.2,5.8,15.1,3.8,21.8,0,0-3.1,39.2-2.8,47.8a74,74,0,0,0,43.8.3S638.5,230.1,638.5,223.4Z"/><path class="cls-12" d="M595.7,286.7c1.2,1.5,5.3,6.3,4.6,8.5s-4-1.7-5.3-3-1.4,3.1-1.1,5.5,5.2,6.3,4.7,8-3.3-.7-6.3-5.1c0,0,4.8,5.5,3.7,6.3s-3.8-2-5.9-5.3c0,0,4.6,5.2,3.5,5.8s-4.3-3-5.5-4.9c0,0,3.9,4.3,2.8,5s-3.7-2-4.8-5.4,2.2-14.4,2-16.5a33.5,33.5,0,0,0-.8-4.7l6.8-1.5C593.9,279.3,593.9,284.5,595.7,286.7Z"/><path class="cls-14" d="M595.8,283.1l-9.4,2.5s-10.9-35.9-9.3-44.4,5.7-40.6,13.1-45.1c0,0,9.4,2.7,10,14.3.3,6.6-2.4,14.9-2.4,14.9s-5.9,11.3-6.7,19.2S595.8,283.1,595.8,283.1Z"/><polygon class="cls-16" points="624.9 191.7 621.6 198.1 610.7 189.9 607.4 192.3 617.8 206.5 622 199.6 627.9 204 628.1 193.7 624.9 191.7"/><path class="cls-10" d="M669.6,240.8s57.9-74.9,58.9-75.2-55.1,78.8-55.1,78.8-1.1,1.1-3.1-.4A2.4,2.4,0,0,1,669.6,240.8Z"/><path class="cls-12" d="M703.7,204.9a29.4,29.4,0,0,1-5.9,1.5c-2,.1-1.5-1.8-.2-2.5s6.3-3,7.5-2.4.8,2.9,0,3.2a1.9,1.9,0,0,1,.6,2.8s.9,2.1-.2,3,.6,2.4-1,2.9-5.7.7-6.3-.4,1.4-2,5.5-2.4a49.2,49.2,0,0,1-5.2.7c-1-.1-3.8-2.4,5.1-3.4,0,0-7.1,2-7.4.2S703.7,204.9,703.7,204.9Z"/><path class="cls-12" d="M613.2,154.7s16.1-2.4,17.9-.7,2.2,8.2,2.1,13.7,2.2,15.9-4.2,17.9-18.6-4-22.9-14.9C600.7,157,612.1,154.9,613.2,154.7Z"/><path class="cls-10" d="M610.5,153.4s7.6.3,8.9,11.7c.6,5.2,1.9,9.1.3,9.4s-3.2-.8-3.2-2.3-.5-6.3-3.5-5-2,7.2,1.8,8.9a4.8,4.8,0,0,1-2.3,5.1s-8-5-9.2-14S605.6,153.2,610.5,153.4Z"/><path class="cls-10" d="M607.4,154.5a11,11,0,0,1,10.3-7.8c8.5-.6,15.2,4.5,19.3,11.3,0,0-2.3,4.1-11,4.6-3.6.2-10.1-.8-13.3-2.5S607.4,154.5,607.4,154.5Z"/><path class="cls-17" d="M701.6,147.3H670l-17,13.9,7.6-13.9h-7.8a2.4,2.4,0,0,1-2.4-2.4V113.4a2.4,2.4,0,0,1,2.4-2.4h48.8a2.4,2.4,0,0,1,2.4,2.4v31.4A2.4,2.4,0,0,1,701.6,147.3Z"/><path class="cls-18" d="M670.6,137.6h-5.9V132h5.9Z"/><path class="cls-18" d="M679.9,137.6H674V132h5.9Z"/><path class="cls-18" d="M689.2,137.6h-5.9V132h5.9Z"/><path class="cls-6" d="M721.1,198.7h33.8L773,213.5l-8.1-14.8h8.3a2.6,2.6,0,0,0,2.6-2.6V162.6a2.6,2.6,0,0,0-2.6-2.6h-52a2.6,2.6,0,0,0-2.6,2.6v33.5A2.6,2.6,0,0,0,721.1,198.7Z"/><path class="cls-12" d="M731.7,249.2a24.5,24.5,0,0,1-6.4-5.1c-1.2-1.5-.6-4.5-.8-5.9-.8-4.4-.8-6-2.8-5.9s-1.8,2.1-1.1,5.9-4.9-1-6.7-3.3c-3.6-4.5-6.4-6.9-8.2-5.8s-1.1,2,3.5,7l4,4.3a41.9,41.9,0,0,1-5-4.7c-1.7-2.1-5.9-6.1-7.6-5.1s2.9,6.5,3.9,7.3l6.3,5.7a53.8,53.8,0,0,1-6-5.1c-3.3-3.6-5.3-3.4-5.7-1.8s3.3,4.3,4.4,5.6l1.4,1.2c1.8,1.4,4.4,3,4.4,3s-4.8-3.2-6.9-4.7-3.7.8-.2,4.1,8.8,5.1,12.4,5.5,12.6,4.8,12.6,4.8Z"/><path class="cls-19" d="M825.1,209.3c17.2,0,49.7,13.2,49.7,52.3a137.4,137.4,0,0,1-1.4,19.7c-3.8,25.9-23.5,45.9-48,48.9h-.3l-33.2-4.1s-16.6-25.5-16.6-64.5S807.9,209.3,825.1,209.3Z"/><path class="cls-20" d="M809.4,210.6h-1.1c-.4,5-1,9.9-1.9,12.1,0,0,6.1,5.6,15.1-.5a67,67,0,0,1-2.1-14A20.5,20.5,0,0,1,809.4,210.6Z"/><path class="cls-12" d="M820.1,188s-4.7-4.4-10.8-3.6-9.6,2-11.1,7-3.7,17.7-3.7,17.7,1.4,11.2,11.3,7.2,20.3-11.5,18.5-15.9S820.1,188,820.1,188Z"/><path class="cls-10" d="M815.1,211.2s12.6-2.7,10.8-13c-1.3-7.8,5.2-8.7.5-14-3.3-3.7-8,1.9-8,1.9s-5.3,2.2-5,4.7,1.9,7.1.3,12.5c0,0,1.6,1.1,2.7,0s0-5.7,3.1-5.2,2.9,5.9-.4,6.7c0,0-.6,6.5-4,6.5"/><path class="cls-10" d="M824.3,183.4s-1.9-5.7-10.8-6.2-9.4,4.6-12.7,5.2-4.2-1.3-3-2.1-2.3-2-5.6,3.1,2.3,12,9.4,12.3S818.8,193.3,824.3,183.4Z"/><path class="cls-11" d="M798.4,210.2a13.3,13.3,0,0,0,6.6.5s-.5,1.8-4.2,1.9C798.8,212.5,798.4,210.2,798.4,210.2Z"/><rect class="cls-17" x="802.5" y="337" width="4.8" height="86.18"/><path class="cls-10" d="M783.6,425.6a21.3,21.3,0,0,1,42.6,0Z"/><rect class="cls-19" x="758" y="320.3" width="93.7" height="31.78" rx="9" ry="9"/><path class="cls-21" d="M727.2,244.1l-6.3,12s38.4,22.2,48.5,20.8,31.4-32.1,31.4-32.1-.3-20.5-5.6-18.6-25.2,34.5-26.6,35.9S727.2,244.1,727.2,244.1Z"/><path class="cls-22" d="M785.6,249.2c-4.1,5.1-7.8,11.1-13.3,14.9s-12.4,5.2-19.2,1.9c-3.5-1.7-7.1-2.9-10.6-4.5a24.4,24.4,0,0,1-4.3-2.7v6.8c11.5,5.9,25.5,12.2,31.1,11.4,10.1-1.4,31.4-32.1,31.4-32.1s-.1-8.3-1.6-13.8C795.5,237.6,790.4,243.2,785.6,249.2Z"/><path class="cls-10" d="M765.2,406.4s-18.5,5-26.2,7.4-5.6,7.8,1.3,10.4,12.7,1.8,14.5-.3,5.6-.9,7.1-.1,14.7-1,15.6-3.6-.4-13.2-.4-13.2Z"/><path class="cls-10" d="M779.2,408.1s-18.9,3.1-26.8,4.8-6.3,7.2.2,10.5,12.5,3,14.4,1.1,5.7-.4,7,.6,14.7.5,15.9-2,.1-15.7.1-15.7Z"/><path class="cls-10" d="M787.7,283.6h27.6s9.2.1,10.9,17.5-13.1,18.7-29,19.3-23.4,3-23.8,7.4,1.5,79.6,1.5,79.6l-18.8.7s-4.7-88.9-3.6-93c2.8-10.4,34-22.5,34-22.5Z"/><path class="cls-23" d="M787.7,283.6h27.6s9.2.1,10.9,17.5-13.1,18.7-29,19.3-23.4,3-23.8,7.4,1.5,79.6,1.5,79.6l-11,.4s-4.2-86.7-3.2-90.8c2.8-10.4,30.4-24,30.4-24Z"/><path class="cls-10" d="M805,286.8h27.6s9.2.1,10.9,17.5-13.1,18.7-29,19.3-23.4,3-23.8,7.4.3,78.7.3,78.7l-20.3-.5s-5.7-86.5-4.4-90.5c2.9-8.9,36.9-25.5,36.9-25.5Z"/><path class="cls-24" d="M807,220.3s3,6,3.9,5.3c3.2-2.2,10.2-6.3,10.2-6.3s8.5,4.7,17.4,8.5v10.9l2.4,55.3s-27.3,8.3-54.3-1.4c0,0,.9-33.9,1.4-39.4.3-3.1,3.3-23.9,6.4-26.5,1.5-1.2,4.8-2.4,8-3.6S806.1,221.5,807,220.3Z"/><path class="cls-21" d="M807,220.3s3,6,3.9,5.3c3.2-2.2,10.2-6.3,10.2-6.3s8.5,4.7,17.4,8.5v10.9l2.4,55.3s-27.3,8.3-54.3-1.4c0,0,.9-33.9,1.4-39.4.3-3.1,3.3-23.9,6.4-26.5,1.5-1.2,4.8-2.4,8-3.6S806.1,221.5,807,220.3Z"/><path class="cls-22" d="M832.2,281.5c4.2-4,6.3-10.4,7.4-17.9l-1.1-24.9V227.7l-1.6-.7c-2.7.2-5.7,2-7.3,3.1-5.4,4.1-8.4,8.9-11.4,14.9s-7.8,19.2-18,17a21.4,21.4,0,0,1-12.2-8.3c-.3,4.2-.7,15.4-1,25.4C815.3,286.1,829.7,283.9,832.2,281.5Z"/><rect class="cls-10" x="836.4" y="297" width="2.1" height="23.28"/><path class="cls-10" d="M803.4,301.2h48.7c2.2,0,3.9-1.2,3.9-2.8v-4.2c0-1.5-1.7-2.8-3.9-2.8H803.4c-2.2,0-3.9,1.2-3.9,2.8v4.2C799.5,299.9,801.2,301.2,803.4,301.2Z"/><polygon class="cls-8" points="735.5 225.9 735.5 277.6 766.5 282.5 766.5 231.5 735.5 225.9"/><path class="cls-12" d="M777.9,262.4s-3.9,8.3-3.6,8-7.8-2.2-8.3-2.2-7.1.4-9.5-.3a33,33,0,0,1-7.1-3.5c-.9-.6-2.2-2.4-.9-2.7s4.5,1.9,5.3,2.3a15.8,15.8,0,0,0,3.4.6s-3.1-1-5-2-5.7-2.7-6.4-3.5-.4-2.2,1.4-1.7a25.6,25.6,0,0,1,4.5,1.9l5.9,2.1s-5.1-1.9-6.1-2.4l-6.4-3.2c-2-1-1.4-3.3.5-3s5.8,3,6.6,3.3l5.9,2.5s-5.8-2.5-6.5-3-4.8-2.4-5.2-3.7a1.2,1.2,0,0,1,1.6-1.5,22.6,22.6,0,0,1,5.2,2.2c.9.5,8.5,4.6,9.8,4.4s3.2-.6,3.3-2.1v-4s3.5,1.9,4,5.4C770.7,258.1,773.7,260.7,777.9,262.4Z"/><polygon class="cls-11" points="807.3 218.8 809.5 223.3 820.4 217.5 823.5 220.6 813 230.5 808.8 224.4 804.4 227.9 804.4 222.2 807.3 218.8"/><path class="cls-21" d="M773.7,258.9l-3.3,12.4s32.5,7.4,46.3,9.3c11.3,1.6,17.2-2.9,24.1-26.3,5.2-17.6,2.4-25.3-4.5-27.5-13.2-4.3-14,39-16.8,40.1S773.7,258.9,773.7,258.9Z"/><path class="cls-10" d="M755.3,174.2c0,4.3-5.5,5.6-5.5,7.3v.7h-5.5v-1.6c0-2.3,4.1-3.7,4.1-6.2a2.1,2.1,0,0,0-2.1-2.2c-1.7,0-2.1,1.3-2.1,2.7a8.1,8.1,0,0,0,0,.9h-5.9c0-.4-.1-.8-.1-1.2,0-4.1,3.7-6.7,8.7-6.7S755.3,170.3,755.3,174.2Zm-5,15.8H744v-5.9h6.3Z"/><polygon class="cls-25" points="827.7 426 747.3 124 710 124 629.6 426 827.7 426"/><circle class="cls-26" cx="728.1" cy="126.8" r="9"/><path class="cls-21" d="M725.4,97.2l-17.1,23.7a3.7,3.7,0,0,0,3,5.9h34.2a3.7,3.7,0,0,0,3-5.9L731.4,97.2A3.7,3.7,0,0,0,725.4,97.2Z"/><line class="cls-4" x1="728" y1="98" x2="728" y2="95.5"/><line class="cls-27" x1="728" y1="90.6" x2="728" y2="34"/><line class="cls-4" x1="728" y1="31.5" x2="728" y2="29"/></g></g></svg>