<svg id="Layer_1" data-name="Layer 1" xmlns="http://www.w3.org/2000/svg" viewBox="0 0 1024 500"><defs><style>.cls-1{fill:none;}.cls-2{fill:#ed233f;}.cls-3{fill:#f6921e;}.cls-4{fill:#1b75bb;}.cls-5{font-size:48.81px;fill:#333;font-family:Poppins-Bold, Poppins;font-weight:700;}</style></defs><title>bg</title><polygon class="cls-1" points="530.3 266 551.8 255.8 530.3 223.2 530.3 266"/><polygon class="cls-1" points="563.8 242.7 563.8 192.3 538.6 204.3 563.8 242.7"/><polygon class="cls-2" points="233.4 274.1 280 274.1 280 258.6 253.6 258.6 253.6 228.6 233.4 238.2 233.4 274.1"/><polygon class="cls-2" points="286.6 213 286.6 274.1 337.3 274.1 337.3 258 306.7 258 306.7 239.8 333.7 239.8 333.7 224.3 306.7 224.3 306.7 207.5 337.3 207.5 337.3 207.5 330.1 192.4 286.6 213"/><polygon class="cls-2" points="341.9 274.1 363 274.1 365.4 266.9 353.5 241.8 341.9 274.1"/><polygon class="cls-2" points="403.7 274.1 425.1 274.1 419.3 258.1 401.2 266.6 403.7 274.1"/><path class="cls-2" d="M456.1,242.9l17.2,31.2H496L477,241.4c10.7-3.2,16.4-10.6,18-19.1l-43.6,20.7Z"/><polygon class="cls-2" points="431.1 274.1 451.3 274.1 451.3 242.9 431.1 252.5 431.1 274.1"/><polygon class="cls-2" points="530.3 266 530.3 223.2 551.8 255.8 583.8 240.6 583.8 191.7 565.1 191.7 563.8 192.3 563.8 242.7 538.6 204.3 510.3 217.7 510.3 273.9 528.6 273.9 525.9 268.1 530.3 266"/><polygon class="cls-2" points="615.3 191.7 595.3 191.7 595.3 235.2 615.3 225.7 615.3 191.7"/><polygon class="cls-2" points="680.4 191.7 680.4 194.9 687 191.7 680.4 191.7"/><polygon class="cls-2" points="646.9 191.7 626.8 191.7 626.8 220.2 656.4 206.2 646.9 191.7"/><polygon class="cls-3" points="233.4 191.4 233.4 238.2 253.6 228.6 253.6 191.4 233.4 191.4"/><polygon class="cls-3" points="329.6 191.4 286.6 191.4 286.6 213 330.1 192.4 329.6 191.4"/><polygon class="cls-3" points="451.3 242.9 451.3 242.9 451.3 242.9 451.3 242.9"/><polygon class="cls-3" points="332.2 191.4 330.1 192.4 337.3 207.5 337.3 191.4 332.2 191.4"/><path class="cls-4" d="M371.8,191.4l-18.3,50.5,11.9,25.1,2.5-7.4h30.9l2.4,7.1,18.1-8.6-24.1-66.7Zm1.4,52.6,10.1-30.3L393.6,244Z"/><path class="cls-4" d="M464.9,191.4H431.1v61.1l20.2-9.5h0l43.6-20.7a27.2,27.2,0,0,0,.4-4.8C495.3,203,485.2,191.4,464.9,191.4Zm-1.2,37.3H451.3V208.1h12.5c7.5,0,11.1,4,11.1,10.1S471.3,228.6,463.7,228.6Z"/><polygon class="cls-3" points="563.8 192.3 565.1 191.7 563.8 191.7 563.8 192.3"/><polygon class="cls-4" points="530.3 191.7 510.3 191.7 510.3 217.7 538.6 204.3 530.3 191.7"/><polygon class="cls-3" points="330.1 192.4 332.2 191.4 329.6 191.4 330.1 192.4"/><polygon class="cls-3" points="530.3 266 525.9 268.1 528.6 273.9 530.3 273.9 530.3 266"/><polygon class="cls-3" points="563.8 273.9 583.8 273.9 583.8 240.6 551.8 255.8 563.8 273.9"/><polygon class="cls-3" points="615.3 273.9 615.3 225.7 595.3 235.2 595.3 273.9 615.3 273.9"/><polygon class="cls-3" points="646.9 273.9 646.9 223.2 680.4 273.9 700.4 273.9 700.4 191.7 687 191.7 680.4 194.9 680.4 242.7 656.4 206.2 626.8 220.2 626.8 273.9 646.9 273.9"/><path class="cls-3" d="M750.4,274.5c21.7,0,35.4-14.2,39.6-28.3V227.6H746.4v14.8h25.4c-3,9.3-10,14.5-19.9,14.5-14.4,0-23.1-8.9-23.1-24.1s8.6-23.4,21.4-23.4c7.5,0,13.1,2.9,16.2,8.4h22.1c-4.3-16.9-18.6-26.9-38.3-26.9-24.6,0-41.8,17.3-41.8,41.9S725.8,274.5,750.4,274.5Z"/><text class="cls-5" transform="translate(233 328.8)">MANAGEMENT SYSTEM</text></svg>