<svg xmlns="http://www.w3.org/2000/svg" xmlns:xlink="http://www.w3.org/1999/xlink" viewBox="0 0 1024 768"><defs><style>.cls-1{fill:#ccc;}.cls-1,.cls-2,.cls-3,.cls-4,.cls-5,.cls-6{stroke:#ccc;stroke-miterlimit:10;}.cls-2{fill:#f2f2f2;}.cls-3{fill:none;}.cls-4{fill:#ffbb78;}.cls-5{fill:#b3b3b3;}.cls-6{fill:#999;}.cls-7{fill:gray;}.cls-8{fill:url(#linear-gradient);}.cls-9{fill:url(#linear-gradient-2);}.cls-10{fill:url(#linear-gradient-3);}.cls-11{fill:#404041;}</style><linearGradient id="linear-gradient" x1="223.41" y1="282.53" x2="248.02" y2="282.53" gradientTransform="matrix(1, 0, -0.21, 1, 18.75, 0)" gradientUnits="userSpaceOnUse"><stop offset="0" stop-color="#2b3e92"/><stop offset="1" stop-color="#3d96d2"/></linearGradient><linearGradient id="linear-gradient-2" x1="207.26" y1="275.15" x2="227.81" y2="275.15" xlink:href="#linear-gradient"/><linearGradient id="linear-gradient-3" x1="222.65" y1="261.83" x2="232.97" y2="261.83" xlink:href="#linear-gradient"/></defs><title>gedung</title><g id="Layer_1" data-name="Layer 1"><rect class="cls-1" x="101.9" y="279" width="312.9" height="495.58"/><polygon class="cls-2" points="351.8 304.7 334.1 303.9 334 303.6 320.5 302.7 289.7 245.3 170.2 245.3 65.6 245.3 11 774.5 121.8 774.5 163.4 331.5 358 331.5 359.1 305.1 351.8 304.7"/><polygon class="cls-2" points="310.2 423.1 297.4 422.5 297.3 422.4 285.7 421.7 230.3 360.1 359.1 345.2 359.1 339.5 186.4 342.9 176.8 430.8 338.8 432.1 338.8 424.6 310.2 423.1"/><polygon class="cls-2" points="338.8 441.2 175.9 441.2 165.7 552 364.1 552.1 338.8 539.6 338.8 441.2"/><polygon class="cls-2" points="391.1 565.3 164.5 565.3 154.4 676.2 400.5 676.2 400.5 565.6 391.1 565.3"/><polygon class="cls-2" points="153.5 686.3 145.4 774.5 400.5 774.5 400.5 686.3 153.5 686.3"/><polygon class="cls-3" points="351.8 305.4 359.1 305.9 359.1 305.8 351.8 305.4"/><polygon class="cls-3" points="334.1 304.7 351.8 305.4 334 304.3 334.1 304.7"/><polygon class="cls-4" points="842.2 211 389.5 211.9 285.7 239.1 964 239.1 842.2 211"/><polygon class="cls-1" points="964 239.5 286.1 239.5 320.5 303.5 334 304.3 313 256.3 921.8 256.3 879.7 327.5 879.7 338.4 883.2 338.6 964 239.5"/><polygon class="cls-5" points="359.1 269.5 879.7 269.5 879.7 327.5 921.8 256.3 313 256.3 334 304.3 351.8 305.4 359.1 305.8 359.1 269.5"/><rect class="cls-2" x="359.1" y="269.5" width="519.8" height="76.49"/><rect class="cls-1" x="420.8" y="275" width="103" height="55.41"/><rect class="cls-1" x="576.9" y="274.2" width="103" height="55.41"/><rect class="cls-1" x="688.5" y="274.2" width="35.1" height="55.41"/><rect class="cls-1" x="733.7" y="274.2" width="25" height="55.41"/><polygon class="cls-3" points="297.4 423.3 310.2 423.8 297.3 423.1 297.4 423.3"/><polygon class="cls-3" points="310.2 423.8 338.8 425.4 338.8 425.1 310.2 423.8"/><polygon class="cls-1" points="1011.6 360.9 230.3 360.9 285.7 422.5 297.3 423.1 261.5 376.5 981.9 376.5 903.9 448.3 903.9 455.9 906.2 456.1 1011.6 360.9"/><polygon class="cls-5" points="338.8 396 903.9 396 903.9 448.3 981.9 376.5 261.5 376.5 297.3 423.1 310.2 423.8 338.8 425.1 338.8 396"/><rect class="cls-2" x="338.8" y="396" width="565.1" height="144.39"/><polygon class="cls-4" points="878.9 346 359.1 346 230.3 360.9 1011.6 360.9 878.9 346"/><rect class="cls-1" x="414.5" y="404.6" width="132.7" height="57.76"/><rect class="cls-1" x="552.7" y="404.6" width="132.7" height="57.76"/><rect class="cls-1" x="692.4" y="404.6" width="132.7" height="57.76"/><rect class="cls-1" x="833.6" y="404.6" width="57.8" height="57.76"/><rect class="cls-2" x="400.5" y="540.4" width="448" height="242.73"/><rect class="cls-6" x="564.4" y="681.6" width="248.2" height="101.46"/><rect class="cls-6" x="422.3" y="681.6" width="114" height="101.46"/><rect class="cls-1" x="424.7" y="552.9" width="110" height="48.39"/><rect class="cls-1" x="559.7" y="552.9" width="123.3" height="48.39"/><rect class="cls-1" x="692.4" y="552.9" width="117.1" height="48.39"/><polygon class="cls-5" points="903.9 540.4 848.5 540.4 848.5 572.1 903.9 540.4"/><polygon class="cls-5" points="338.8 540.4 391.1 566.1 400.5 566.3 400.5 540.4 338.8 540.4"/><path class="cls-7" d="M189.2,276.3l7.9-6.6s7.1-5,11,.5-1.5,11-1.5,11l-22.4,18.6-2.7-3.5a3.3,3.3,0,0,1,.2-3.7,11,11,0,0,1,2.2-2.3l6.6-5.5a5.3,5.3,0,0,0,1.6-2.9,2.1,2.1,0,0,0-.2-1.6Z"/><path class="cls-7" d="M189.2,276.3l-4.1-5.3a7.6,7.6,0,0,0-6.2-3.1,11.1,11.1,0,0,0-10.3,8.5c-1,4.7,2,8.5,6.7,8.5,2.8,0,6-1.9,7.8-3.5Z"/><path class="cls-7" d="M197.2,263a6.7,6.7,0,0,1-6.3,5.2,4,4,0,0,1-4.1-5.2,6.7,6.7,0,0,1,6.3-5.2A4,4,0,0,1,197.2,263Z"/><path class="cls-7" d="M89,292.2a10.5,10.5,0,0,0-5.6,1.8l1.9-9.1a.6.6,0,0,0-.6-.7H82.6a.9.9,0,0,0-.9.7L78.3,301l-.2,1a.6.6,0,0,0,0,.4,6.8,6.8,0,0,0,7.1,7.4A11.5,11.5,0,0,0,95.9,301C96.9,296.1,93.8,292.2,89,292.2Zm-3,14.1a4.1,4.1,0,0,1-4.2-5.3,6.9,6.9,0,0,1,6.4-5.3,4.1,4.1,0,0,1,4.2,5.3A6.9,6.9,0,0,1,86,306.3Z"/><path class="cls-7" d="M146.6,292.2A10.5,10.5,0,0,0,141,294l1.9-9.1a.6.6,0,0,0-.6-.7h-2.1a.9.9,0,0,0-.9.7L136,301l-.2,1a.6.6,0,0,0,0,.4,6.8,6.8,0,0,0,7.1,7.4,11.5,11.5,0,0,0,10.7-8.8C154.6,296.1,151.5,292.2,146.6,292.2Zm-3,14.1a4.1,4.1,0,0,1-4.2-5.3,6.9,6.9,0,0,1,6.4-5.3A4.1,4.1,0,0,1,150,301,6.9,6.9,0,0,1,143.6,306.3Z"/><path class="cls-7" d="M158.9,300.6a6.7,6.7,0,0,1,6.4-5.1,4.1,4.1,0,0,1,4.2,5.1l-1.7,7.8a.5.5,0,0,0,.5.7h2.2a.9.9,0,0,0,.8-.7l1.7-7.8c1-4.7-2.1-8.4-7-8.4a11.2,11.2,0,0,0-10.6,8.4l-1.7,7.8a.5.5,0,0,0,.5.7h2.2a.9.9,0,0,0,.8-.7Z"/><path class="cls-7" d="M135.3,292.4h-3.6l-.7.3-10.1,8.1,3.4-15.9a.6.6,0,0,0-.6-.7h-2a1,1,0,0,0-.9.7l-5,23.5a.6.6,0,0,0,.6.7h2a1,1,0,0,0,.9-.7l.6-2.7,2.9-2.4,4.5,5.4a.8.8,0,0,0,.6.3h3.6c.2,0,.4-.3.3-.4l-6-7.7,9.7-8C135.6,292.7,135.5,292.4,135.3,292.4Z"/><path class="cls-7" d="M116.4,292.1h-3.6l-.7.3L102,300.5l3.4-15.9a.6.6,0,0,0-.6-.7h-2a1,1,0,0,0-.9.7l-5,23.5a.6.6,0,0,0,.6.7h2a1,1,0,0,0,.9-.7l.6-2.7,2.9-2.4,4.5,5.4a.8.8,0,0,0,.6.3h3.6c.2,0,.4-.3.3-.4l-6-7.7,9.7-8C116.7,292.3,116.6,292.1,116.4,292.1Z"/><path class="cls-8" d="M188.1,275.1l7.9-6.6s7.1-5,11,.5-1.5,11-1.5,11l-22.4,18.6-2.7-3.5a3.3,3.3,0,0,1,.2-3.7,11,11,0,0,1,2.2-2.3l6.6-5.5a5.3,5.3,0,0,0,1.6-2.9,2.1,2.1,0,0,0-.2-1.6Z"/><path class="cls-9" d="M188.1,275.1l-4.1-5.3a7.6,7.6,0,0,0-6.2-3.1,11.1,11.1,0,0,0-10.3,8.5c-1,4.7,2,8.5,6.7,8.5,2.8,0,6-1.9,7.8-3.5Z"/><path class="cls-10" d="M196.1,261.8a6.7,6.7,0,0,1-6.3,5.2,4,4,0,0,1-4.1-5.2,6.7,6.7,0,0,1,6.3-5.2A4,4,0,0,1,196.1,261.8Z"/><path class="cls-11" d="M87.8,291.1a10.5,10.5,0,0,0-5.6,1.8l1.9-9.1a.6.6,0,0,0-.6-.7H81.5a.9.9,0,0,0-.9.7l-3.4,16.2-.2,1a.6.6,0,0,0,0,.4,6.8,6.8,0,0,0,7.1,7.4,11.5,11.5,0,0,0,10.7-8.8C95.8,295,92.7,291.1,87.8,291.1Zm-3,14.1a4.1,4.1,0,0,1-4.2-5.3,6.9,6.9,0,0,1,6.4-5.3,4.1,4.1,0,0,1,4.2,5.3A6.9,6.9,0,0,1,84.8,305.1Z"/><path class="cls-11" d="M145.5,291.1a10.5,10.5,0,0,0-5.6,1.8l1.9-9.1a.6.6,0,0,0-.6-.7h-2.1a.9.9,0,0,0-.9.7l-3.4,16.2-.2,1a.6.6,0,0,0,0,.4,6.8,6.8,0,0,0,7.1,7.4,11.5,11.5,0,0,0,10.7-8.8C153.4,295,150.3,291.1,145.5,291.1Zm-3,14.1a4.1,4.1,0,0,1-4.2-5.3,6.9,6.9,0,0,1,6.4-5.3,4.1,4.1,0,0,1,4.2,5.3A6.9,6.9,0,0,1,142.5,305.1Z"/><path class="cls-11" d="M157.7,299.5a6.7,6.7,0,0,1,6.4-5.1,4.1,4.1,0,0,1,4.2,5.1l-1.7,7.8a.5.5,0,0,0,.5.7h2.2a.9.9,0,0,0,.8-.7l1.7-7.8c1-4.7-2.1-8.4-7-8.4a11.2,11.2,0,0,0-10.6,8.4l-1.7,7.8a.5.5,0,0,0,.5.7h2.2a.9.9,0,0,0,.8-.7Z"/><path class="cls-11" d="M134.2,291.3h-3.6l-.7.3-10.1,8.1,3.4-15.9a.6.6,0,0,0-.6-.7h-2a1,1,0,0,0-.9.7l-5,23.5a.6.6,0,0,0,.6.7h2a1,1,0,0,0,.9-.7l.6-2.7,2.9-2.4,4.5,5.4a.8.8,0,0,0,.6.3h3.6c.2,0,.4-.3.3-.4l-6-7.7,9.7-8C134.4,291.5,134.4,291.3,134.2,291.3Z"/><path class="cls-11" d="M115.2,290.9h-3.6l-.7.3-10.1,8.1,3.4-15.9a.6.6,0,0,0-.6-.7h-2a1,1,0,0,0-.9.7l-5,23.5a.6.6,0,0,0,.6.7h2a1,1,0,0,0,.9-.7l.6-2.7,2.9-2.4,4.5,5.4a.8.8,0,0,0,.6.3h3.6c.2,0,.4-.3.3-.4l-6-7.7,9.7-8C115.5,291.2,115.5,290.9,115.2,290.9Z"/></g></svg>