<svg id="Layer_1" data-name="Layer 1" xmlns="http://www.w3.org/2000/svg" viewBox="0 0 300 400"><defs><style>.cls-1,.cls-2,.cls-3,.cls-4{fill:none;stroke:#333;stroke-miterlimit:10;}.cls-2{stroke-dasharray:4.97 4.97;}.cls-3{stroke-dasharray:5.08 5.08;}.cls-4{stroke-dasharray:4.48 4.48;}.cls-5{fill:#fffc9c;}.cls-6{fill:#ff9ca3;}.cls-28,.cls-7{fill:#fff;}.cls-8{fill:#e7edff;}.cls-9{fill:#1a1a1a;}.cls-10{fill:#ffb27d;}.cls-11{fill:#ed975d;}.cls-12{fill:#aec3ff;}.cls-13{fill:#233862;}.cls-14{fill:#2e3552;}.cls-15{fill:#333;}.cls-16{fill:#4d4d4d;}.cls-17{fill:#5f9aa8;}.cls-18{fill:#6262dd;}.cls-19{fill:#5252c6;}.cls-20{fill:#a9453d;}.cls-21{fill:#c3d2ff;}.cls-22{fill:#b0c3f4;}.cls-23{fill:#d7e1ff;}.cls-24{fill:#e3ebff;}.cls-25{fill:#e9efff;}.cls-26{fill:#00a99d;}.cls-27{fill:#039385;}.cls-28{font-size:11.23px;font-family:Poppins-Bold, Poppins;font-weight:700;}.cls-29{fill:#42210b;}</style></defs><title>register-illustration</title><path class="cls-1" d="M226,284a10.8,10.8,0,0,0,.7-2.4"/><path class="cls-2" d="M227.8,276.8c7.6-35.4,33.2-190.7-4.3-233.3C179.5-6.5,109,12,92,40s55,51,55,4C147,10.4,24,31,28,146c2.4,68.7,6.2,93.5,8.4,102.3"/><path class="cls-1" d="M37,250.7a7.3,7.3,0,0,0,1,2.3l.9-2.3"/><line class="cls-3" x1="40.6" y1="245.9" x2="43.3" y2="238.7"/><line class="cls-1" x1="44.1" y1="236.3" x2="45" y2="234"/><line class="cls-1" x1="23" y1="241" x2="24.9" y2="242.6"/><line class="cls-4" x1="28.3" y1="245.5" x2="33.4" y2="249.9"/><line class="cls-1" x1="35.1" y1="251.4" x2="37" y2="253"/><circle class="cls-5" cx="37.5" cy="146.5" r="21.5"/><path class="cls-6" d="M37.7,367.9s-27.7-24.2-22.3-64,34.9-63.2,73.1-54.9c31.2,6.8,51.3,2.4,83.6-17,53-31.9,121.2,2.6,103.3,64.5-8.6,29.9,27.6,44.7-2.7,71.5Z"/><rect class="cls-7" x="45" y="73.5" width="219.2" height="296.41"/><rect class="cls-8" x="51.8" y="79.3" width="203.6" height="283.23"/><rect class="cls-7" x="69.6" y="134.2" width="53.3" height="53.34"/><path class="cls-9" d="M101.8,138.8c-3.3-.9-7.8-.1-8.5-.1-8.9.7-11.4,14.5-10.9,18.4,1,7.2-2.5,9-6.8,14.6s-5.2,11.7-3.7,15.9H94.5l15.7-13.8,1.6-.8C120.9,166.7,109.8,141,101.8,138.8Z"/><path class="cls-10" d="M102.5,171.5s-3.7,2.3-6.7,1.7-5.6-4.3-5.6-4.4,2.2-1.6,1.7-8.5h.5l8.9,1.2s0,2.8.1,5.4S102,171.3,102.5,171.5Z"/><path class="cls-11" d="M101.5,161.6s0,2.8.1,5.4c-5,.2-7.9-4.2-9.1-6.6Z"/><path class="cls-10" d="M103.3,163.9s-11.7.9-12.2-6.4-2.3-12.1,5.1-13,9.1,1.8,9.8,4.2S106.3,163.5,103.3,163.9Z"/><path class="cls-9" d="M104.9,145s-5.9,7.8-10.7,9.4-7.1.4-7.1.4a19.8,19.8,0,0,0,3.3-7.3,3.6,3.6,0,0,1,2.4-2.7C96.3,143.7,102.9,142.2,104.9,145Z"/><path class="cls-9" d="M100.2,145.4a18.3,18.3,0,0,1,4.1,3.4,14.1,14.1,0,0,1,2,7.2s2.2-8.2-.7-11.3S100.2,145.4,100.2,145.4Z"/><path class="cls-12" d="M113.1,175a4.4,4.4,0,0,0-1.3-2c-3.1-2.9-10-4-10-4h0c-.1.4-.6,1.8-2.9,1.8s-4-.7-7.6-2.8h-.1s-9.6.6-12.9,5.2c-1.8,2.5-4.3,8.1-6.3,14.4h44.5Z"/><rect class="cls-12" x="137.1" y="171.8" width="69.4" height="1.34"/><rect class="cls-12" x="137.1" y="178" width="69.4" height="1.34"/><rect class="cls-12" x="137.1" y="184.4" width="69.4" height="1.34"/><rect class="cls-7" x="137.1" y="135" width="20.5" height="20.45"/><rect class="cls-12" x="175" y="151" width="28.9" height="2.36"/><rect class="cls-12" x="168.7" y="156.5" width="35.2" height="2.36"/><rect class="cls-12" x="73" y="228.1" width="162.6" height="1.34"/><rect class="cls-12" x="73" y="234.4" width="162.6" height="1.34"/><rect class="cls-12" x="73" y="240.7" width="162.6" height="1.34"/><rect class="cls-12" x="72.4" y="206.7" width="89.3" height="2.96"/><rect class="cls-12" x="72.4" y="212.9" width="163.2" height="2.36"/><polygon class="cls-13" points="140.9 143.5 147.3 152.3 154.9 138.3 146.1 146.2 140.9 143.5"/><rect class="cls-12" x="170" y="311.9" width="70.2" height="1.18"/><rect class="cls-12" x="170" y="317.6" width="70.2" height="1.18"/><rect class="cls-12" x="170" y="324.4" width="70.2" height="1.18"/><path class="cls-12" d="M189.5,316.8a210.7,210.7,0,0,1-6.8-22.5c-.6-2.5-3.2-11.3-2.3-13,6.5-16.3,12.5-1.5,7.9,4.7a58,58,0,0,1-4.9,6.3.6.6,0,0,0,.7.9,15.8,15.8,0,0,1,11.7-1.8q3,8.1-5.3,6.8c-.7.1-.7,1.3,0,1.2,4-.5,16.2-3.5,8.1-8.3-1.8-1.1-4.3-1.2-6.4-1.2s-6.2,1.4-6.4,1.2,6.2-11,6.3-12.2c.6-6.8-4.8-11.6-10.2-5.6-3.7,4.1-2.7,10-1.9,14.9a183.7,183.7,0,0,0,8.2,29.1c.3.7,1.4.4,1.1-.3Z"/><path class="cls-12" d="M204.7,294.6a46.9,46.9,0,0,1,.3-9.7l-1.1.2a20.8,20.8,0,0,1,1.2,9.1h1.2c-.1-1.8-.3-7.6,2.2-7.8a11.4,11.4,0,0,1,1,3.1,8.8,8.8,0,0,1,1.1,2.8.6.6,0,0,0,1.1-.2,33.1,33.1,0,0,0-.1-5l-1.1.2.6,3.3c.1.7,1.1.5,1.1-.2s-.3-1.5.5-1.4a.6.6,0,0,0,.9-.3l.5-.7a.6.6,0,0,0,.4-.7,95.4,95.4,0,0,1-4.1-13.1c-.1-.6-2.1-6.7,1.3-3.1,1.7,1.8-.6,7.1-1.4,9.1a.6.6,0,0,0,.6.7,31.5,31.5,0,0,1,6.6.8c.5.1,9.8,3.3,3.7,5.6-.7.3-.4,1.4.3,1.1,3.4-1.3,2.5-5.1-.2-6.7s-8.3-.8-9.3-2.8c-.2-.5,1-3.9,1.1-4.8a9.9,9.9,0,0,0-.8-4.9c-1.3-2.5-3.4-3.7-4.2-.7-.4,1.4.8,4.5,1.2,5.9s1.3,5.1,2.1,7.6c.2.5,3,6.6.7,5.1a.6.6,0,0,0-.9.5v2.8l1.1-.2-.6-3.3c-.1-.6-1.2-.5-1.1.2a33.1,33.1,0,0,1,.1,5l1.1-.2a16.8,16.8,0,0,0-3.8-7,.6.6,0,0,0-.9.1,16.4,16.4,0,0,0-1.8,9,.6.6,0,0,0,1.2,0,21.2,21.2,0,0,0-1.2-9.4.6.6,0,0,0-1.1.2,46.9,46.9,0,0,0-.3,9.7c.1.7,1.2.7,1.2,0Z"/><path class="cls-12" d="M224.7,288.3c1.5-.6.8-3.5.8-4.7,0-3.5-.3-7.2.3-10.6l-1,.3c2,1.8,3.6,8.7,2.5,11.2-.3.7.7,1.3,1,.6s.3-4.3-.1-6.2-.9-4.8-2.6-6.4a.6.6,0,0,0-1,.3,33.9,33.9,0,0,0-.4,6.3c0,1.2.6,8-.2,8.3s-.1,1.3.6,1Z"/><rect class="cls-14" x="9" y="368" width="287" height="1.09" rx="0.5" ry="0.5"/><path class="cls-15" d="M252.4,127.2c-.7-2.9.3-4.2,1.2-4.9a4.3,4.3,0,0,1,1.4-2.1,5.2,5.2,0,0,1,2.8-.5,1.3,1.3,0,0,0-.6-.3,4.3,4.3,0,0,1,1.5.4c6.7-2.6,7.7,7.2,7.6,9.5s-.1,5,3.3,6.8c6.6,3.4-2.2,16.3-2.2,16.3.2-1.8-8.3-11.6-12.8-14.5a12.8,12.8,0,0,1-1.5-4.6,12.1,12.1,0,0,0,.9,4.2C252.1,135.6,251.8,131.1,252.4,127.2Z"/><path class="cls-10" d="M199.6,366c-.2,2.8-4.1,2.8-8.5,2.3s-3.2.6-9.4.7-8.3-2-8.6-2.8,2.7-1.4,5.9-2.2l1.2-.3c3.6-.9,6-3.6,9-5.9s6.7-10.3,6.7-10.3l8.4-.4s-3.5,7.2-4.9,10.3-.5,4.1-.1,5.8A10.8,10.8,0,0,1,199.6,366Z"/><path class="cls-13" d="M191.1,368.3c-4.4-.5-3.2.6-9.4.7s-8.3-2-8.6-2.8,2.7-1.4,5.9-2.2h0a17.3,17.3,0,0,0,9.1,1.6c4.1-.4,8.4-2.1,11.2-2.5a10.8,10.8,0,0,1,.3,2.9C199.4,368.8,195.5,368.8,191.1,368.3Z"/><path class="cls-10" d="M257.8,366.6c-.2,2.8-4.1,2.8-8.5,2.3s-3.2.6-9.4.7-8.3-1.9-8.6-2.8,2.7-1.4,5.9-2.2l1.2-.3c3.6-.9,6-3.6,9-5.9s0-15.4,0-15.4l9.3-.9s-.4,11.1-.4,16.1c0,2,.9,3.9,1.3,5.6A10.8,10.8,0,0,1,257.8,366.6Z"/><path class="cls-13" d="M249.3,368.9c-4.4-.5-3.2.6-9.4.7s-8.3-1.9-8.6-2.8,2.7-1.4,5.9-2.2h0a17.3,17.3,0,0,0,9.1,1.6c4.1-.4,8.4-2.2,11.2-2.5a10.8,10.8,0,0,1,.3,2.9C257.6,369.3,253.7,369.4,249.3,368.9Z"/><path class="cls-15" d="M230.8,139.2c-1.6-6.6.7-9.6,2.8-11.2s2.1-4.2,3.3-4.8a11.8,11.8,0,0,1,6.4-1.2,3,3,0,0,0-1.3-.6c1.1-.2,3.5.9,3.5.9,15.2-5.9,11.8,13.3,11.5,18.5s-21.5,15.3-13.6,19.4c15.1,7.8,22,36.7,22,36.7.4-4.2-13.8-33.9-24-40.6-2.5-3.6-7.7-9.2-7.8-9.7a26.3,26.3,0,0,0,1.2,16.2C230.2,158.5,229.5,148.2,230.8,139.2Z"/><path class="cls-10" d="M236.8,164c-.1,0,4.9,2.6,8.6,1.6s5.8-5.5,5.7-5.5-1.9-2.3-1.9-11.1h-.7l-11.3,2.2s.3,3.5.3,6.9S237.4,163.8,236.8,164Z"/><path class="cls-11" d="M237.3,151.4s.3,3.5.3,6.9c6.3-.2,9.6-5.9,11-9.1Z"/><path class="cls-16" d="M191.5,351.9a2.8,2.8,0,0,0,2.5,3.6l4.4.2H203a3.7,3.7,0,0,0,3-1.4,130.9,130.9,0,0,0,22.1-41.8l.6-1.9c4.6-13.4,14.1-30.1,19.1-45.3.8-2.4,1.5-4.7,2.2-6.8l.6-2a161,161,0,0,0,5.7-30.2l-36.1.3A796.3,796.3,0,0,1,191.5,351.9Z"/><path class="cls-7" d="M225.3,205.9c.1,17.2-2.5,24.6-2.5,24.6a48.6,48.6,0,0,0,33.9,2.1l13.2-3.7c-.3-.7-2.9-12.2-3.2-12.8-3.9-8.3-4.9-11.8-5.4-14.4a54.5,54.5,0,0,1-.4-14.4,115.6,115.6,0,0,1,4.5-22.6c-5-1.1-9.7-3.1-14.9-5.1-1.2,1.5-4.9,3.1-8.1,3s-4.9-1.6-4.7-3.4c-3.9,2.2-7,4.2-7,4.2-3.3,5.8-10,11.4-10.5,20.2C219.9,185.6,225.3,205.4,225.3,205.9Z"/><path class="cls-17" d="M256.4,207.8c1.6,2.2,4.6,15.8,12.1,17.5-3.9-9.7-6.8-13.9-7.3-16.9a73.5,73.5,0,0,1-.4-16.7c-2.5-4.4-4.4-7.5-4.4-7.5s-4-12.5-5.2-2S254.6,205.3,256.4,207.8Z"/><path class="cls-10" d="M235.2,154.6s14.9.2,14.9-9,1.9-15.5-7.6-16.1-11.4,3-12.1,6.1S231.3,154.3,235.2,154.6Z"/><path class="cls-15" d="M235.8,129.2s4.1,10.9,10.3,12.5,9-.1,9-.1a17.7,17.7,0,0,1-5.8-10.5S238.8,124,235.8,129.2Z"/><path class="cls-9" d="M251.1,121.3s6.1,1.7,6.9,4.8,0,4.4,0,4.4.3-4.8-3-5.3C255,125.2,248.6,122.8,251.1,121.3Z"/><path class="cls-15" d="M236.8,130.1s-3,2.4-3.8,4.8-1.1,7.2-2.5,7.1-3.1-7.4.4-11.6S236.8,130.1,236.8,130.1Z"/><polygon class="cls-10" points="211.7 217.8 204.7 239.3 208.7 240.9 220.4 221.9 211.7 217.8"/><path class="cls-18" d="M230.7,162s-8.3,3.3-10.7,8.4-6,39.6-7.5,43.1l-2.5,6.3s4.2,3.5,8.4,3.8S230.7,162,230.7,162Z"/><path class="cls-18" d="M237.6,159s-8.6,21.3-8.9,25.6-1,70.5-1,70.5.5,3-5.3,1.8-7.4-2.5-7.4-2.5,5.6-40.9,4.1-55.1S230.7,162,230.7,162Z"/><path class="cls-15" d="M198.4,355.7l5.1.2a2.9,2.9,0,0,0,2.3-1.1,130.5,130.5,0,0,0,22.4-42.2l.6-1.9c4.6-13.4,14.1-30.1,19.1-45.3.8-2.4,1.5-4.7,2.2-6.8l.6-2-5.3-4s-16,25.9-20.9,50.2C220.1,323.9,202.8,349.4,198.4,355.7Z"/><path class="cls-16" d="M244.7,305c-.1,11.2.4,36.2,1.8,48.4a2.2,2.2,0,0,0,2.2,2h7.3a1.5,1.5,0,0,0,1.4-1.2c3.8-19.1,6.4-34.9,8.4-48.6,1.6-11.5,3.1-21.3,4.2-29.8s1.9-15.7,2.2-21.7c0-.9.1-1.9.1-2.8s0-1.8,0-2.6l-31.2-3C241.6,266.4,244.8,298.2,244.7,305Z"/><path class="cls-15" d="M252.5,355.4h3.3a1.8,1.8,0,0,0,1.7-1.4c3.7-19,6.4-34.8,8.4-48.4,1.6-11.5,3.1-21.3,4.2-29.8s1.9-15.7,2.2-21.7l-11.5,6.7s7.3,2.6,4.5,22.1S256.4,352.6,252.5,355.4Z"/><path class="cls-18" d="M251,253.9s2.2,7.9,9.8,6.9,18.4-5.6,18.4-5.6S276,245,272,231.5c-4.9-16.3-11-37.4-13.8-50.7a82.2,82.2,0,0,1-1.6-9.1l-6.3-12.3s-9.4,21.1-9.9,26.5S251,253.9,251,253.9Z"/><path class="cls-10" d="M258.6,185.1l-8.3-25.7s10.5,3.1,15.8,5.8c0,0,3.3,4.3,5.3,14.1,0,0,2.2,23.6-2.7,32.2,0,0-15.2,3-39.6-5.3v-5.6s26.6,1.4,32.1,2Z"/><path class="cls-19" d="M251.4,197.1c.3,8.6,2.4,25.4,20.5,34.3h.1c-4.9-16.3-11-37.4-13.8-50.7C254.8,185.7,251.2,192.3,251.4,197.1Z"/><path class="cls-18" d="M250.3,159.5s15.5,1.1,19.2,9.4,4.9,35.9.2,44c0,0-6.5,1.9-18.1-.3h-.4s-3.7-9-.4-10.8c0,0,9.7.5,8.7-2.7S250.3,159.5,250.3,159.5Z"/><path class="cls-20" d="M211.6,204.1l.5,1.5,25.4-7.9a1,1,0,0,0,.2-.9.7.7,0,0,0-.6-.6Z"/><polygon class="cls-20" points="209.7 205.5 211.6 204.1 212 205.5 209.7 205.5"/><path class="cls-10" d="M205.7,238.7s-6.4,3.6-7.3,6.3-.3,8.4.8,8.3,2.5-6.1,3.4-6.5,2-1.7,2-.8-.8,2.6-.4,2.9,1.8-2.4,2.7-2.9,1.3-4.7,2.2-5.8S205.7,238.7,205.7,238.7Z"/><path class="cls-10" d="M229.2,200.6s-5.8-3.5-8.2-3-8.6,5-5.6,6,5.4,0,6.5.7,2,2,7.3,2S229.2,200.6,229.2,200.6Z"/><rect class="cls-21" x="42.2" y="261.3" width="84.3" height="99.63"/><polygon class="cls-22" points="90.8 342.1 109.2 333.3 98.2 310.6 79.8 319.4 90.8 342.1"/><polygon class="cls-22" points="126.5 313.3 126.5 342.4 122.8 340.3 118.6 337.8 115.2 335.9 114.1 335.3 111.9 334 113.3 331.7 121 318.5 124.6 312.2 126.5 313.3"/><polygon class="cls-22" points="107.5 351.2 115.3 332.4 91.7 322.9 84 341.7 107.5 351.2"/><polygon class="cls-22" points="75.3 355 91.9 343.1 77.1 322.7 60.5 334.6 75.3 355"/><polygon class="cls-22" points="126.5 326.9 126.5 352.9 122.5 356 111.3 342.1 110.8 341.5 109.8 340.3 109.7 340.2 113.2 337.4 113.2 337.4 115.2 335.9 125.5 327.7 126.5 326.9"/><polygon class="cls-22" points="126.5 329.8 126.5 334.1 118.6 337.8 113.5 340.3 111.7 341.1 110.8 341.5 109.7 342.1 108.8 340.3 106.2 334.7 102.5 327.3 98.7 319.4 101.8 317.9 117.1 310.6 121 318.5 125.5 327.7 126.5 329.8"/><rect class="cls-22" x="60.5" y="340.3" width="66" height="20.56"/><rect class="cls-23" x="21.6" y="261.3" width="81.9" height="99.63" transform="translate(125.1 622.2) rotate(180)"/><polygon class="cls-24" points="51.9 342.1 70.4 333.3 59.3 310.6 40.9 319.4 51.9 342.1"/><polygon class="cls-24" points="68.7 333.4 84.6 346.2 100.6 326.6 84.7 313.8 68.7 333.4"/><polygon class="cls-25" points="68.7 351.2 76.4 332.4 52.9 322.9 45.1 341.7 68.7 351.2"/><polygon class="cls-25" points="36.5 355 53.1 343.1 38.2 322.7 21.6 334.6 36.5 355"/><polygon class="cls-25" points="70.9 340.2 83.6 356 103.5 340.3 90.7 324.5 70.9 340.2"/><polygon class="cls-25" points="70.8 342.1 89.3 333.3 78.2 310.6 59.8 319.4 70.8 342.1"/><rect class="cls-25" x="21.6" y="340.3" width="81.9" height="20.56" transform="translate(125.1 701.1) rotate(180)"/><polygon class="cls-24" points="103.5 317.1 98.7 319.4 103.5 329.2 103.5 317.1"/><rect class="cls-26" x="21.6" y="261.3" width="81.9" height="17.29"/><rect class="cls-27" x="103.5" y="261.3" width="23.3" height="17.29"/><text class="cls-28" transform="translate(42.5 273.4) scale(1.01 1)">BKKBN</text><rect class="cls-29" x="99.3" y="360.8" width="4.2" height="8.62"/><rect class="cls-29" x="122.3" y="360.8" width="4.2" height="8.62"/><rect class="cls-29" x="21.6" y="360.8" width="4.2" height="8.62"/></svg>